<svg width="164" height="51" viewBox="0 0 164 51" fill="none" xmlns="http://www.w3.org/2000/svg">
<path d="M35.0451 0H15.6781C7.01932 0 0 7.01932 0 15.6781V35.0451C0 43.7039 7.01932 50.7232 15.6781 50.7232H35.0451C43.7039 50.7232 50.7232 43.7039 50.7232 35.0451V15.6781C50.7232 7.01932 43.7039 0 35.0451 0Z" fill="#0167FE"/>
<path d="M25.8925 36.2831C25.3596 36.317 25.0081 36.0231 24.7019 35.6501C24.2937 35.1641 24.1236 34.5764 23.9535 33.9887C23.602 32.8246 23.2618 31.6492 22.9329 30.4738C22.6948 29.6487 22.4567 28.8237 22.2186 27.9873C22.0598 27.3996 21.7083 26.9589 21.198 26.6198C19.4404 25.467 17.6828 24.3029 15.9365 23.1275C15.4376 22.7997 14.95 22.4606 14.6098 21.9407C14.0315 21.0253 14.3944 19.9064 15.4262 19.5786C16.152 19.3526 16.9004 19.2056 17.6374 19.0587C19.0435 18.7875 20.4609 18.5501 21.867 18.3015C22.6948 18.1545 23.5226 18.0415 24.3504 17.9059C25.575 17.6912 26.7997 17.4651 28.0243 17.2617C29.1356 17.0696 30.2582 16.9 31.3808 16.7305C32.0839 16.6288 32.7869 16.5158 33.4899 16.4479C34.4651 16.3575 35.5197 16.8548 35.7692 17.9285C35.8826 18.4032 35.8599 18.9005 35.6558 19.3526C35.3836 19.9742 35.0775 20.5845 34.7826 21.1948C34.1816 22.4267 33.5693 23.6587 32.9457 24.868C31.687 27.3205 30.417 29.7618 29.1469 32.203C28.8408 32.7907 28.5233 33.3671 28.2058 33.9435C27.8883 34.4973 27.5934 35.0624 27.2306 35.5823C26.9244 36.0457 26.4595 36.2944 25.8925 36.2718V36.2831Z" fill="#F7F7F7"/>
<path d="M65.7334 36.9743V22.3633H60.2642V18.2152H76.4077V22.3633H70.9384V36.9743H65.7334ZM85.5183 37.397C83.6864 37.397 82.1099 36.9919 80.7888 36.1817C79.4678 35.3538 78.4462 34.2089 77.724 32.7469C77.0194 31.2849 76.6671 29.5763 76.6671 27.6212C76.6671 25.7364 77.0282 24.0543 77.7504 22.5747C78.4902 21.0951 79.547 19.9325 80.921 19.0871C82.2949 18.224 83.9506 17.7924 85.8882 17.7924C87.5967 17.7924 89.0323 18.0654 90.1948 18.6115C91.375 19.1399 92.3174 19.9149 93.0219 20.9366C93.7441 21.9582 94.2549 23.1912 94.5544 24.6355L89.1908 24.8469C89.0323 23.9134 88.6976 23.2 88.1868 22.7068C87.676 22.196 86.9274 21.9406 85.941 21.9406C85.0955 21.9406 84.3733 22.1784 83.7745 22.6539C83.1932 23.1295 82.744 23.7901 82.427 24.6355C82.1275 25.481 81.9778 26.4762 81.9778 27.6212C81.9778 28.7485 82.1187 29.7349 82.4005 30.5803C82.7 31.4258 83.1492 32.0864 83.748 32.5619C84.3469 33.0199 85.1131 33.2489 86.0467 33.2489C86.6984 33.2489 87.2533 33.1432 87.7112 32.9318C88.1868 32.7029 88.5655 32.3858 88.8474 31.9807C89.1468 31.5579 89.3405 31.0559 89.4286 30.4747H85.9146V27.0399H94.6072V36.9743H91.5952L91.331 33.1696L91.9122 33.2753C91.7537 34.1032 91.375 34.8254 90.7761 35.4419C90.1948 36.0584 89.4462 36.5428 88.5303 36.895C87.632 37.2297 86.628 37.397 85.5183 37.397Z" fill="white"/>
<path d="M97.54 37V33.045H101.495V37H97.54ZM110.846 37.42C108.933 37.42 107.404 36.9767 106.261 36.09C105.141 35.2033 104.581 33.9667 104.581 32.38C104.581 30.7933 105.048 29.545 105.981 28.635C106.914 27.725 108.396 27.0833 110.426 26.71L117.006 25.485C117.006 23.9217 116.633 22.755 115.886 21.985C115.163 21.215 114.066 20.83 112.596 20.83C111.313 20.83 110.298 21.1217 109.551 21.705C108.804 22.265 108.291 23.0817 108.011 24.155L104.896 23.91C105.246 22.16 106.086 20.7483 107.416 19.675C108.769 18.5783 110.496 18.03 112.596 18.03C114.976 18.03 116.796 18.7067 118.056 20.06C119.316 21.39 119.946 23.2333 119.946 25.59V33.255C119.946 33.675 120.016 33.9783 120.156 34.165C120.319 34.3283 120.576 34.41 120.926 34.41H121.661V37C121.568 37.0233 121.416 37.035 121.206 37.035C120.996 37.0583 120.774 37.07 120.541 37.07C119.701 37.07 119.013 36.9417 118.476 36.685C117.963 36.405 117.589 35.985 117.356 35.425C117.123 34.8417 117.006 34.0833 117.006 33.15L117.356 33.22C117.193 34.0133 116.796 34.7367 116.166 35.39C115.536 36.02 114.754 36.5217 113.821 36.895C112.888 37.245 111.896 37.42 110.846 37.42ZM111.126 34.83C112.363 34.83 113.413 34.5967 114.276 34.13C115.163 33.64 115.839 32.9867 116.306 32.17C116.773 31.33 117.006 30.3967 117.006 29.37V28.04L110.986 29.16C109.726 29.3933 108.851 29.755 108.361 30.245C107.894 30.7117 107.661 31.33 107.661 32.1C107.661 32.9633 107.964 33.64 108.571 34.13C109.201 34.5967 110.053 34.83 111.126 34.83ZM124.982 42.25V18.45H127.712L127.782 22.44L127.362 22.23C127.828 20.8533 128.598 19.815 129.672 19.115C130.768 18.3917 132.028 18.03 133.452 18.03C135.295 18.03 136.8 18.485 137.967 19.395C139.157 20.305 140.032 21.495 140.592 22.965C141.175 24.435 141.467 26.0217 141.467 27.725C141.467 29.4283 141.175 31.015 140.592 32.485C140.032 33.955 139.157 35.145 137.967 36.055C136.8 36.965 135.295 37.42 133.452 37.42C132.495 37.42 131.597 37.2567 130.757 36.93C129.94 36.6033 129.24 36.1483 128.657 35.565C128.097 34.9817 127.712 34.2933 127.502 33.5L127.922 33.01V42.25H124.982ZM133.172 34.62C134.782 34.62 136.053 34.0133 136.987 32.8C137.92 31.5867 138.387 29.895 138.387 27.725C138.387 25.555 137.92 23.8633 136.987 22.65C136.053 21.4367 134.782 20.83 133.172 20.83C132.098 20.83 131.165 21.0867 130.372 21.6C129.602 22.1133 128.995 22.8833 128.552 23.91C128.132 24.9367 127.922 26.2083 127.922 27.725C127.922 29.2417 128.132 30.5133 128.552 31.54C128.972 32.5667 129.578 33.3367 130.372 33.85C131.165 34.3633 132.098 34.62 133.172 34.62ZM145.455 42.25V18.45H148.185L148.255 22.44L147.835 22.23C148.302 20.8533 149.072 19.815 150.145 19.115C151.242 18.3917 152.502 18.03 153.925 18.03C155.769 18.03 157.274 18.485 158.44 19.395C159.63 20.305 160.505 21.495 161.065 22.965C161.649 24.435 161.94 26.0217 161.94 27.725C161.94 29.4283 161.649 31.015 161.065 32.485C160.505 33.955 159.63 35.145 158.44 36.055C157.274 36.965 155.769 37.42 153.925 37.42C152.969 37.42 152.07 37.2567 151.23 36.93C150.414 36.6033 149.714 36.1483 149.13 35.565C148.57 34.9817 148.185 34.2933 147.975 33.5L148.395 33.01V42.25H145.455ZM153.645 34.62C155.255 34.62 156.527 34.0133 157.46 32.8C158.394 31.5867 158.86 29.895 158.86 27.725C158.86 25.555 158.394 23.8633 157.46 22.65C156.527 21.4367 155.255 20.83 153.645 20.83C152.572 20.83 151.639 21.0867 150.845 21.6C150.075 22.1133 149.469 22.8833 149.025 23.91C148.605 24.9367 148.395 26.2083 148.395 27.725C148.395 29.2417 148.605 30.5133 149.025 31.54C149.445 32.5667 150.052 33.3367 150.845 33.85C151.639 34.3633 152.572 34.62 153.645 34.62Z" fill="white"/>
</svg>
